CalibrationMatrices=Corners=DataRate=2000.000000
Origins=Types=events=DataType=double
version=2
endheader
time	f1_x	f1_y	f1_z	p1_x	p1_y	p1_z	m1_x	m1_y	m1_z	f2_x	f2_y	f2_z	p2_x	p2_y	p2_z	m2_x	m2_y	m2_z
0	2.275110006332397	14.20642757415771	-0.8897200226783761	827.5141146289386	3.59129182072867e-14	586.502463114927	98.81736487141552	617.0434542538676	-38.64419209168003	1.254680037498474	19.86564064025879	-0.8000999689102185	281.0138821440493	3.226563460536694e-14	526.9378016229909	62.58072451078556	990.8551558825745	-39.90725462986376
0.0005	2.364330053329468	14.03103923797607	-0.8897200226783761	829.5113418308365	3.592497786755277e-14	586.6994123132504	105.8940057894065	628.4245079088303	-39.84892764856526	1.030629992485046	19.51712036132812	-0.933449983596803	277.1103756136561	3.268987880523596e-14	533.8662351952568	52.28342453524351	990.0952786133555	-47.35352369974402
0.001	2.275110006332397	14.03103923797607	-1.156635999679566	830.4750887506393	3.58359679510855e-14	585.2457700626155	98.3430451871605	606.5003986455605	-49.99631053662805	1.389109969139099	20.21416091918945	-1.066799998283388	278.8636873569204	3.28036095114163e-14	535.7235985796958	71.0953928441063	1034.571591516559	-54.59939576350025
0.0015	2.319720029830933	13.50487518310547	-0.9342060089111336	822.7291951913737	3.552816568709074e-14	580.2189776158617	98.36522828389894	572.6596801548285	-39.61399916757663	1.70278000831604	20.21416091918945	-1.111250042915346	272.2792263947763	3.323904809779754e-14	542.8348503575048	87.27120014750744	1036.019964280136	-56.95399548712107
0.002	2.542770147323608	13.68026351928711	-0.8897200226783761	831.8716964177131	3.542222987987553e-14	578.4889145921561	116.8565620958729	628.6956629218394	-40.88832928430069	1.568350076675415	20.21416091918945	-1.200150012969972	274.3137196440286	3.323161130006321e-14	542.7133982336842	79.73465945615976	1027.684610122382	-61.0154288915631
0.0025	2.408940076828003	13.50487518310547	-0.8007479906082161	830.7013302316341	3.543577609442276e-14	578.7101410642566	105.9836377399296	594.15998467421	-35.22967871801374	1.657970070838928	20.0398998260498	-1.333500027656557	277.1843140677082	3.311504076985231e-14	540.8096570032811	87.29687310336999	1055.158125522565	-70.21259596005343
0.003	2.230499982833862	12.80332374572754	-0.6672900319099434	827.7829929433391	3.505131593329368e-14	572.4314301510897	99.25642166490314	569.7431563319834	-29.69415883872401	1.837210059165955	20.0398998260498	-1.200150012969972	274.8139786593522	3.337128545369545e-14	544.9944502681072	95.42507364571429	1040.876576531309	-62.33604197962854
0.0035	2.453550100326538	13.32948780059814	-1.023177981376649	833.5802830533133	3.566293556580157e-14	582.4199367626893	106.8060119690575	580.2487723330447	-44.54017862151913	1.882019996643066	20.38842010498047	-1.289049983024599	268.1338777330351	3.357845575811385e-14	548.3777980964385	95.13246359000163	1030.595124788447	-65.15897854141537
0.004	2.364330053329468	13.32948780059814	-1.023177981376649	832.1901145222117	3.523597471253525e-14	575.4471368735526	105.6448757545473	595.5987746224007	-45.71845228000488	1.165060043334961	20.0398998260498	-1.066799998283388	271.5289206611051	3.346540860153261e-14	546.5315979241121	50.49594211552676	868.5677853310668	-46.23716285725725
0.004500000000000001	2.141280174255371	13.68026351928711	-1.290094017982484	828.8861694630937	3.608788415475733e-14	589.3598738817286	89.8057422260344	573.7531379444792	-54.10681526838201	0.7617700099945068	21.0854606628418	-0.9779000282287611	283.6949265420972	3.346327747807959e-14	546.4967940369097	30.57813991581816	846.3895373650976	-39.25379510159137
0.005	2.141280174255371	13.85565185546875	-1.112150073051454	831.2391981668103	3.58827720118918e-14	586.0101383823447	92.2050368440697	596.6341561427711	-47.88996773740931	1.12024998664856	21.95676040649414	-1.02234995365143	283.5769697269456	3.354063998201177e-14	547.7602196055886	42.47389722913022	832.4831029724783	-38.76205077538605
0.0055	2.364330053329468	14.03103923797607	-1.023177981376649	833.0926543656685	3.562748710861411e-14	581.8410195236594	101.5116247652276	602.4174113025729	-43.9297631763748	1.254680037498474	21.0854606628418	-0.9334499835968031	283.7168197720913	3.291223757487794e-14	537.4976294845619	51.75352654707694	869.7412213136148	-38.50330527515438
0.006	2.408940076828003	14.55720329284668	-1.067664027214051	837.6222063837472	3.587800730753701e-14	585.9323248550794	98.10283692445051	592.8345642348571	-43.48006451443192	1.70278000831604	21.78250122070312	-0.8445500135421766	284.3895050904854	3.309034897546109e-14	540.4064093990182	69.93689074038798	894.6548588101197	-34.68751202940467
0.006500000000000001	2.408940076828003	13.68026351928711	-1.067664027214051	829.1764938556474	3.589854380693446e-14	586.267711342216	101.8117638662761	578.1844772527884	-45.12389447659761	1.568350076675415	21.60824012756348	-0.6223000288009657	282.937273762105	3.37346130145434e-14	550.9280396279279	71.98727049821036	991.8182491185756	-28.56357210712878
